<?xml version="1.0" encoding="UTF-8" standalone="no"?>
<!-- Created with Inkscape (http://www.inkscape.org/) -->

<svg
   width="93.934662mm"
   height="79.622093mm"
   viewBox="0 0 93.934662 79.622093"
   version="1.1"
   id="svg1"
   xml:space="preserve"
   xmlns="http://www.w3.org/2000/svg"
   xmlns:svg="http://www.w3.org/2000/svg"><defs
     id="defs1" /><g
     id="layer1"
     transform="translate(-25.402547,-59.284867)"><circle
       style="fill:#f5dfbb;fill-opacity:1;stroke:none;stroke-width:2.03681;stroke-linecap:round;stroke-linejoin:round;stroke-dasharray:none;stroke-opacity:1;paint-order:stroke fill markers"
       id="path10"
       cx="79.526161"
       cy="99.095917"
       r="39.81105" /><g
       id="g9"
       transform="matrix(0.0393358,0,0,0.01645108,47.927723,78.924863)"><path
         style="fill:#fbf5f3;fill-opacity:1"
         d="m 1045.412,248.017 -24.152,-0.012 0.01,-17.734 C 1021.299,144.548 951.83,75.026 866.107,74.99 780.378,74.96 710.855,144.429 710.826,230.158 l -0.009,17.734 154.938,0.06 -179.09,-0.072 -0.027,78.808 24.149,0.006 -0.88,1827.472 155.085,368.921 0.003,-0.01 v 0.01 l 34.415,-81.701 h -0.003 l 120.947,-287.106 0.88,-1827.473 -155.221,-0.054 179.374,0.066 z"
         id="path1" /><polygon
         style="fill:#c2b094;fill-opacity:1"
         points="865.141,2131.168 899.251,2089.446 933.333,2131.192 967.44,2089.476 1020.354,2154.278 1021.234,326.806 866.012,326.752 710.787,326.693 709.907,2154.165 762.862,2089.398 796.949,2131.138 831.057,2089.422 "
         id="polygon1" /><path
         style="fill:#e7372b;fill-opacity:1"
         d="m 865.958,2426.335 c -4.451,-5.06 -9.067,-11.165 -16.233,-12.22 -5.24,-0.776 -10.123,1.814 -13.769,5.364 -3.694,3.592 -6.859,8.712 -8.551,14.184 l 37.59,89.417 v 0.01 l 34.415,-81.701 h -0.003 c -12.785,1.223 -24.776,-5.186 -33.449,-15.05 z"
         id="path2" /><polygon
         style="fill:#0f273e;fill-opacity:1;stroke-width:1.01118;stroke-dasharray:none"
         points="710.787,326.693 866.012,326.752 1045.386,326.818 1045.412,248.017 1021.26,248.005 865.755,247.951 686.665,247.879 686.638,326.687 "
         id="polygon2"
         transform="matrix(0.99544464,0,0,1.653367,4.5736103,-214.26875)" /><path
         style="fill:#e7372b;fill-opacity:1"
         d="m 1022.1316,196.42887 0.01,-17.734 c 0.029,-85.723003 -69.44,-155.245003 -155.163,-155.281003 -85.729,-0.03 -155.252,69.439 -155.281,155.168003 l -0.009,17.734 154.938,0.06 z"
         id="path3" /><path
         style="fill:#000000;fill-opacity:1;stroke:#0f273e;stroke-width:99.6156;stroke-dasharray:none;stroke-opacity:1"
         d="m 869.54925,1994.3065 c -4.46696,0 -8.07966,-1.2966 -8.07966,-2.8975 V 429.79496 c 0,-1.60096 3.6127,-2.89747 8.07966,-2.89747 4.46694,0 8.07964,1.29651 8.07964,2.89747 V 1991.409 c 0.003,1.6009 -3.6127,2.8975 -8.07964,2.8975 z"
         id="path4" /><path
         style="display:none;fill:#000000;stroke:#000000;stroke-width:62.8968;stroke-dasharray:none;stroke-opacity:1"
         d="m 938.625,2025.252 c -1.689,0 -3.055,-1.367 -3.055,-3.055 V 375.682 c 0,-1.688 1.366,-3.055 3.055,-3.055 1.689,0 3.055,1.367 3.055,3.055 v 1646.515 c 0.001,1.688 -1.366,3.055 -3.055,3.055 z"
         id="path5" /></g><text
       xml:space="preserve"
       style="font-style:normal;font-variant:normal;font-weight:normal;font-stretch:normal;font-size:22.5778px;font-family:Stencil;-inkscape-font-specification:'Stencil, Normal';font-variant-ligatures:normal;font-variant-caps:normal;font-variant-numeric:normal;font-variant-east-asian:normal;text-align:start;writing-mode:lr-tb;direction:ltr;text-anchor:start;fill:#0f273e;fill-opacity:1;stroke:#f5dfbb;stroke-width:0.5;stroke-dasharray:none;stroke-opacity:1"
       x="88.975761"
       y="112.15901"
       id="text4"><tspan
         id="tspan4"
         style="font-style:normal;font-variant:normal;font-weight:normal;font-stretch:normal;font-size:22.5778px;font-family:Haettenschweiler;-inkscape-font-specification:'Haettenschweiler, Normal';font-variant-ligatures:normal;font-variant-caps:normal;font-variant-numeric:normal;font-variant-east-asian:normal;fill:#0f273e;fill-opacity:1;stroke:#f5dfbb;stroke-width:0.5;stroke-dasharray:none;stroke-opacity:1"
         x="88.975761"
         y="112.15901">ASK</tspan></text><text
       xml:space="preserve"
       style="font-style:normal;font-variant:normal;font-weight:normal;font-stretch:normal;font-size:22.5778px;font-family:Stencil;-inkscape-font-specification:'Stencil, Normal';font-variant-ligatures:normal;font-variant-caps:normal;font-variant-numeric:normal;font-variant-east-asian:normal;text-align:start;writing-mode:lr-tb;direction:ltr;text-anchor:start;fill:#0f273e;fill-opacity:1;stroke:#f5dfbb;stroke-width:0.5;stroke-dasharray:none;stroke-opacity:1"
       x="25.266695"
       y="101.35745"
       id="text2"><tspan
         style="font-style:normal;font-variant:normal;font-weight:normal;font-stretch:normal;font-size:22.5778px;font-family:Haettenschweiler;-inkscape-font-specification:'Haettenschweiler, Normal';font-variant-ligatures:normal;font-variant-caps:normal;font-variant-numeric:normal;font-variant-east-asian:normal;fill:#0f273e;fill-opacity:1;stroke:#f5dfbb;stroke-width:0.5;stroke-dasharray:none;stroke-opacity:1"
         x="25.266695"
         y="101.35745"
         id="tspan3">PROJEC</tspan></text></g></svg>
